<svg id="Logo" xmlns="http://www.w3.org/2000/svg" viewBox="0 0 3808.38 1072.81"><title>Logo</title><path d="M4033.35,963.94V683a51.39,51.39,0,0,0-.05-7c-0.77-5.55,1.92-7.1,6.89-6.6,2,0.2,4,0,6,0h338.94c12,0.15,10.68-1.38,10.71,10.6q0.09,41.49,0,83c0,12.91,0,12.92-12.44,12.92q-100,0-200,0c-12.13,0-11-1.75-11,11.35q-0.07,51.49,0,103c0,2.33.06,4.67,0,7,0,2.88,1.27,4.3,4.22,4.2,2.33-.07,4.67,0,7,0h180c2,0,4,0,6,0,7,0.17,7.16.18,7.17,7.14q0.08,46,0,92c0,0.67-.06,1.34,0,2,0.36,3.69-1,5.67-5,5.37-2.32-.17-4.66,0-7,0h-162c-6,0-12-.07-18,0-13.81.19-12.41-2.08-12.43,12q-0.09,50.49,0,101c0,8-.06,16,0,24,0.07,7.41.13,7.54,7.76,7.54q64.49,0.07,129,0h84c12.52,0,11.07-.51,11.08,11.52q0,41.49,0,83c0,14.57,1,12.43-12.05,12.44q-168.47.07-336.94,0c-5.33,0-10.67-.17-16,0-4.15.17-6.33-1.12-5.91-5.63,0.21-2.31,0-4.66,0-7Q4033.35,1105.42,4033.35,963.94Z" transform="translate(-1148.63 -409.09)" style="fill:#fff"/><path d="M3689.32,537.38v12.69q0,411.8.14,823.6c0,7.63-1.81,12.46-8.57,17-43.25,29.26-86.1,59.09-129.06,88.77-1.92,1.32-3.74,3.45-6.13,1.85-1.79-1.2-.89-3.66-1-5.57-0.09-1.66,0-3.33,0-5q0-411.3-.23-822.6c0-8.86,3-13.52,10.05-18.32,41.29-28,82.19-56.57,123.23-84.93C3681,542.67,3684.33,540.62,3689.32,537.38Z" transform="translate(-1148.63 -409.09)" style="fill:#fff"/><path d="M3764.35,1354.15v-12.25q0-411.92-.22-823.83c0-8.79,2.8-13.55,9.93-18.38,40.78-27.59,81.16-55.77,121.68-83.74,2.95-2,6-3.91,10.57-6.88v8.77q0,414.92.12,829.83c0,5.86-1.39,9.61-6.5,13.08-36.85,25.09-73.44,50.54-110.12,75.87C3781.95,1342.08,3774.06,1347.48,3764.35,1354.15Z" transform="translate(-1148.63 -409.09)" style="fill:#fff"/><path d="M4723.16,909.26q0,113.47,0,226.94c0,1.67,0,3.33,0,5,0.09,8.56.09,8.64,8.74,8.65q106.47,0,212.95,0c13.79,0,12.06-1.89,12.1,12.24,0.09,29.33,0,58.65,0,88,0,9.84.66,9.4-9,9.4H4594c-10,0-9.36,1.05-9.36-10q0-48.49,0-97,0-235.44,0-470.88c0-12.15,0-12.15,12.07-12.15q58.49,0,117,0c10.78,0,9.42-.85,9.42,9.81Q4723.19,794.28,4723.16,909.26Z" transform="translate(-1148.63 -409.09)" style="fill:#fff"/><path d="M2805.86,1271.46c-56.83,0-111.13-.1-165.43.15-5.53,0-7.5-3.28-10-6.73q-32.32-44.45-64.64-88.91l-96.91-133.39c-1.17-1.62-2.43-3.18-3.55-4.83-2.09-3.08-5.18-2.84-8.07-2.11-3.21.8-1.85,3.78-2,5.89-0.21,2.31,0,4.66,0,7q0,106,0,211.92c0,12.7,1.19,11-11.33,11q-59,.11-118,0c-9.35,0-9.19,1.13-9.19-9.18q0-103,0-205.92,0-181.93,0-363.87c0-12.56-1.79-11,11.15-11q118,0,235.91.09c31.85,0,63.15,4.21,93.25,14.93,59.8,21.3,93,64.33,101.66,126.66,4.59,33,3.37,65.88-6.48,97.94-16.73,54.49-54.26,87.84-107.74,104.6-5.62,1.76-11.32,3.26-18.15,5.22ZM2455.19,918.77c0,9.33,0,9.4,8.91,9.4,32,0,63.91-.4,95.85.13,25.63,0.43,47-14.26,55.73-40.06,6-17.83,6.4-36,2.3-54.14q-10.34-45.77-57.55-46.08c-32.28-.23-64.57-0.1-96.85-0.06-8.32,0-8.37.11-8.39,9q-0.05,30.45,0,60.91T2455.19,918.77Z" transform="translate(-1148.63 -409.09)" style="fill:#fff"/><path d="M2868.15,1271.47c4-10,7.36-18.25,10.73-26.52q112.74-277,225.51-554c4.41-10.83,1.41-9.34,14.22-9.37,37.33-.09,74.66,0,112,0,9.19,0,9.21,0,12.53,8.81q107.79,285.38,215.52,570.79c1.14,3,3.09,5.94,2.43,9.43-3,1.69-6,.91-8.9.91q-67,.09-134,0c-8.93,0-9,0-11.62-8.29q-21-65.63-41.86-131.28c-3.11-9.75-3.11-9.76-13.71-9.76H3077c-10.65,0-10.63,0-14.13,10.56q-21.69,65.38-43.4,130.76c-2.65,8-2.71,8-10.87,8q-66.49,0-133,0h-7.47ZM3168.53,834h-2l-61.71,183c12.2,1,112,.79,120.82-0.3Z" transform="translate(-1148.63 -409.09)" style="fill:#fff"/><path d="M2206.22,1270.81c-2.88,1.24-5.88.62-8.78,0.62q-67,.07-134,0c-11.2,0-9.05.85-12.21-9-14.17-44-28.1-88.13-42.19-132.18-3-9.36-1.77-8.16-10.74-8.16q-89.47-.06-178.94,0c-8,0-8,.06-10.73,8.23q-21.85,65.85-43.71,131.7c-3.45,10.32-.84,9.36-12.93,9.37-45.64,0-91.28,0-137.28,0-1.1-4.52,1.53-7.86,2.93-11.31q81-199.33,162.13-398.59,34.81-85.54,69.67-171.06c4.27-10.44,1.86-9,13.53-9q56.48-.1,113,0c9.07,0,8.16-1.79,11.93,8.21Q2096,976,2204,1262.26C2205.07,1265,2206.9,1267.57,2206.22,1270.81ZM1851.78,1017h119l-57.28-183.09C1894.47,878.74,1851.55,1009.59,1851.78,1017Z" transform="translate(-1148.63 -409.09)" style="fill:#fff"/><path d="M1148.68,976.32q0-142,0-284c0-12.18-1.69-10.89,10.3-10.89q112,0,224,.12c34.85,0.09,69.14,4.31,102.1,16.29,57.63,21,90.44,62.39,100,122.53,6.29,39.37,4.87,78.49-6.79,116.73-16.6,54.39-54.37,87-108.14,102.34a266,266,0,0,1-69,10.14c-34.32.53-68.66,0.29-103,.38-2.33,0-4.67.05-7,0-3,0-4.08,1.6-4,4.39s0,5.33,0,8q0,99,0,198c0,12.75,1.23,11-11.27,11.06q-59,.1-118,0c-9.33,0-9.22,1.16-9.22-9.16Q1148.69,1119.31,1148.68,976.32Zm138.41-39.64c0,5.09,1.41,6.95,6.75,6.9,28.66-.24,57.34.37,86-0.31,30.65-.73,53-16.3,62.22-43.18,8.56-25,8.19-50.56.15-75.64-6-18.62-19.41-29.89-38.53-34a94.53,94.53,0,0,0-19.82-2.39c-29.66,0-59.32-.11-89-0.09-7.53,0-7.64.14-7.66,7.73-0.06,23.33,0,46.66,0,70C1287.18,889.35,1287.3,913,1287.09,936.68Z" transform="translate(-1148.63 -409.09)" style="fill:#fff"/></svg>